<mxfile host="app.diagrams.net" modified="2023-12-05T08:33:06.083Z" agent="Mozilla/5.0 (X11; Ubuntu; Linux x86_64; rv:120.0) Gecko/20100101 Firefox/120.0" etag="v1TC4PcWIVKnd7nIUS5Q" version="22.1.5" type="device">
  <diagram name="Page-1" id="wUhibT4KiaUbnmHxGS7o">
    <mxGraphModel dx="2191" dy="1964" grid="1" gridSize="10" guides="1" tooltips="1" connect="1" arrows="1" fold="1" page="1" pageScale="1" pageWidth="827" pageHeight="1169" math="0" shadow="0">
      <root>
        <mxCell id="0" />
        <mxCell id="1" parent="0" />
        <mxCell id="8ogGT7-_lDbHDxVYdEfR-91" value="" style="ellipse;whiteSpace=wrap;html=1;fillColor=#a0522d;fontColor=#ffffff;strokeColor=#6D1F00;" vertex="1" parent="1">
          <mxGeometry x="130" y="-50" width="810" height="580" as="geometry" />
        </mxCell>
        <mxCell id="8ogGT7-_lDbHDxVYdEfR-12" value="BBN-R5" style="sketch=0;points=[[0.5,0,0],[1,0.5,0],[0.5,1,0],[0,0.5,0],[0.145,0.145,0],[0.8555,0.145,0],[0.855,0.8555,0],[0.145,0.855,0]];verticalLabelPosition=bottom;html=1;verticalAlign=top;aspect=fixed;align=center;pointerEvents=1;shape=mxgraph.cisco19.rect;prIcon=router;fillColor=#FAFAFA;strokeColor=#005073;" vertex="1" parent="1">
          <mxGeometry x="430" y="230" width="50" height="50" as="geometry" />
        </mxCell>
        <mxCell id="8ogGT7-_lDbHDxVYdEfR-13" value="BBN-R6" style="sketch=0;points=[[0.5,0,0],[1,0.5,0],[0.5,1,0],[0,0.5,0],[0.145,0.145,0],[0.8555,0.145,0],[0.855,0.8555,0],[0.145,0.855,0]];verticalLabelPosition=bottom;html=1;verticalAlign=top;aspect=fixed;align=center;pointerEvents=1;shape=mxgraph.cisco19.rect;prIcon=router;fillColor=#FAFAFA;strokeColor=#005073;" vertex="1" parent="1">
          <mxGeometry x="640" y="230" width="50" height="50" as="geometry" />
        </mxCell>
        <mxCell id="8ogGT7-_lDbHDxVYdEfR-14" style="edgeStyle=orthogonalEdgeStyle;rounded=0;orthogonalLoop=1;jettySize=auto;html=1;entryX=0;entryY=0.5;entryDx=0;entryDy=0;entryPerimeter=0;endArrow=none;endFill=0;shape=link;" edge="1" parent="1" source="8ogGT7-_lDbHDxVYdEfR-12" target="8ogGT7-_lDbHDxVYdEfR-13">
          <mxGeometry relative="1" as="geometry" />
        </mxCell>
        <mxCell id="8ogGT7-_lDbHDxVYdEfR-113" value="172.16.56.0/32" style="edgeLabel;html=1;align=center;verticalAlign=middle;resizable=0;points=[];" vertex="1" connectable="0" parent="8ogGT7-_lDbHDxVYdEfR-14">
          <mxGeometry x="-0.2125" y="-4" relative="1" as="geometry">
            <mxPoint as="offset" />
          </mxGeometry>
        </mxCell>
        <mxCell id="8ogGT7-_lDbHDxVYdEfR-19" value="BBN-R4" style="sketch=0;points=[[0.5,0,0],[1,0.5,0],[0.5,1,0],[0,0.5,0],[0.145,0.145,0],[0.8555,0.145,0],[0.855,0.8555,0],[0.145,0.855,0]];verticalLabelPosition=bottom;html=1;verticalAlign=top;aspect=fixed;align=center;pointerEvents=1;shape=mxgraph.cisco19.rect;prIcon=router;fillColor=#FAFAFA;strokeColor=#005073;" vertex="1" parent="1">
          <mxGeometry x="790" y="380" width="50" height="50" as="geometry" />
        </mxCell>
        <mxCell id="8ogGT7-_lDbHDxVYdEfR-20" value="BBN-R2" style="sketch=0;points=[[0.5,0,0],[1,0.5,0],[0.5,1,0],[0,0.5,0],[0.145,0.145,0],[0.8555,0.145,0],[0.855,0.8555,0],[0.145,0.855,0]];verticalLabelPosition=bottom;html=1;verticalAlign=top;aspect=fixed;align=center;pointerEvents=1;shape=mxgraph.cisco19.rect;prIcon=router;fillColor=#FAFAFA;strokeColor=#005073;" vertex="1" parent="1">
          <mxGeometry x="777" y="30" width="50" height="50" as="geometry" />
        </mxCell>
        <mxCell id="8ogGT7-_lDbHDxVYdEfR-21" value="BBN-R1" style="sketch=0;points=[[0.5,0,0],[1,0.5,0],[0.5,1,0],[0,0.5,0],[0.145,0.145,0],[0.8555,0.145,0],[0.855,0.8555,0],[0.145,0.855,0]];verticalLabelPosition=bottom;html=1;verticalAlign=top;aspect=fixed;align=center;pointerEvents=1;shape=mxgraph.cisco19.rect;prIcon=router;fillColor=#FAFAFA;strokeColor=#005073;" vertex="1" parent="1">
          <mxGeometry x="200" y="80" width="50" height="50" as="geometry" />
        </mxCell>
        <mxCell id="8ogGT7-_lDbHDxVYdEfR-22" value="BBN-R3" style="sketch=0;points=[[0.5,0,0],[1,0.5,0],[0.5,1,0],[0,0.5,0],[0.145,0.145,0],[0.8555,0.145,0],[0.855,0.8555,0],[0.145,0.855,0]];verticalLabelPosition=bottom;html=1;verticalAlign=top;aspect=fixed;align=center;pointerEvents=1;shape=mxgraph.cisco19.rect;prIcon=router;fillColor=#FAFAFA;strokeColor=#005073;" vertex="1" parent="1">
          <mxGeometry x="200" y="350" width="50" height="50" as="geometry" />
        </mxCell>
        <mxCell id="8ogGT7-_lDbHDxVYdEfR-23" style="edgeStyle=orthogonalEdgeStyle;rounded=0;orthogonalLoop=1;jettySize=auto;html=1;exitX=0.8555;exitY=0.145;exitDx=0;exitDy=0;exitPerimeter=0;entryX=0;entryY=0.5;entryDx=0;entryDy=0;entryPerimeter=0;fillColor=#fa6800;strokeColor=#C73500;endArrow=none;endFill=0;jumpStyle=arc;" edge="1" parent="1" source="8ogGT7-_lDbHDxVYdEfR-22" target="8ogGT7-_lDbHDxVYdEfR-12">
          <mxGeometry relative="1" as="geometry">
            <Array as="points">
              <mxPoint x="320" y="357" />
            </Array>
          </mxGeometry>
        </mxCell>
        <mxCell id="8ogGT7-_lDbHDxVYdEfR-105" value="172.16.35.0/32" style="edgeLabel;html=1;align=center;verticalAlign=middle;resizable=0;points=[];" vertex="1" connectable="0" parent="8ogGT7-_lDbHDxVYdEfR-23">
          <mxGeometry x="-0.0776" y="4" relative="1" as="geometry">
            <mxPoint as="offset" />
          </mxGeometry>
        </mxCell>
        <mxCell id="8ogGT7-_lDbHDxVYdEfR-25" style="edgeStyle=orthogonalEdgeStyle;rounded=0;orthogonalLoop=1;jettySize=auto;html=1;entryX=0.5;entryY=1;entryDx=0;entryDy=0;entryPerimeter=0;fillColor=#fa6800;strokeColor=#C73500;endArrow=none;endFill=0;jumpStyle=arc;" edge="1" parent="1" source="8ogGT7-_lDbHDxVYdEfR-22" target="8ogGT7-_lDbHDxVYdEfR-13">
          <mxGeometry relative="1" as="geometry" />
        </mxCell>
        <mxCell id="8ogGT7-_lDbHDxVYdEfR-104" value="172.16.36.0/32" style="edgeLabel;html=1;align=center;verticalAlign=middle;resizable=0;points=[];" vertex="1" connectable="0" parent="8ogGT7-_lDbHDxVYdEfR-25">
          <mxGeometry x="-0.2196" y="1" relative="1" as="geometry">
            <mxPoint as="offset" />
          </mxGeometry>
        </mxCell>
        <mxCell id="8ogGT7-_lDbHDxVYdEfR-27" style="edgeStyle=orthogonalEdgeStyle;rounded=0;orthogonalLoop=1;jettySize=auto;html=1;entryX=0.855;entryY=0.8555;entryDx=0;entryDy=0;entryPerimeter=0;endArrow=none;endFill=0;fillColor=#e51400;strokeColor=#B20000;jumpSize=6;jumpStyle=arc;" edge="1" parent="1" source="8ogGT7-_lDbHDxVYdEfR-19" target="8ogGT7-_lDbHDxVYdEfR-12">
          <mxGeometry relative="1" as="geometry">
            <Array as="points">
              <mxPoint x="570" y="430" />
              <mxPoint x="570" y="273" />
            </Array>
          </mxGeometry>
        </mxCell>
        <mxCell id="8ogGT7-_lDbHDxVYdEfR-111" value="172.16.45.0/32" style="edgeLabel;html=1;align=center;verticalAlign=middle;resizable=0;points=[];" vertex="1" connectable="0" parent="8ogGT7-_lDbHDxVYdEfR-27">
          <mxGeometry x="-0.3846" y="-4" relative="1" as="geometry">
            <mxPoint as="offset" />
          </mxGeometry>
        </mxCell>
        <mxCell id="8ogGT7-_lDbHDxVYdEfR-28" style="edgeStyle=orthogonalEdgeStyle;rounded=0;orthogonalLoop=1;jettySize=auto;html=1;entryX=0.855;entryY=0.8555;entryDx=0;entryDy=0;entryPerimeter=0;fillColor=#e51400;strokeColor=#B20000;endArrow=none;endFill=0;jumpStyle=arc;" edge="1" parent="1" source="8ogGT7-_lDbHDxVYdEfR-19" target="8ogGT7-_lDbHDxVYdEfR-13">
          <mxGeometry relative="1" as="geometry">
            <Array as="points">
              <mxPoint x="815" y="370" />
              <mxPoint x="730" y="370" />
              <mxPoint x="730" y="273" />
            </Array>
          </mxGeometry>
        </mxCell>
        <mxCell id="8ogGT7-_lDbHDxVYdEfR-112" value="172.16.46.0/32" style="edgeLabel;html=1;align=center;verticalAlign=middle;resizable=0;points=[];" vertex="1" connectable="0" parent="8ogGT7-_lDbHDxVYdEfR-28">
          <mxGeometry x="0.1526" y="-5" relative="1" as="geometry">
            <mxPoint as="offset" />
          </mxGeometry>
        </mxCell>
        <mxCell id="8ogGT7-_lDbHDxVYdEfR-29" style="edgeStyle=orthogonalEdgeStyle;rounded=0;orthogonalLoop=1;jettySize=auto;html=1;entryX=0.8555;entryY=0.145;entryDx=0;entryDy=0;entryPerimeter=0;endArrow=none;endFill=0;fillColor=#76608a;strokeColor=#432D57;" edge="1" parent="1" source="8ogGT7-_lDbHDxVYdEfR-20" target="8ogGT7-_lDbHDxVYdEfR-13">
          <mxGeometry relative="1" as="geometry" />
        </mxCell>
        <mxCell id="8ogGT7-_lDbHDxVYdEfR-110" value="172.16.26.0/32" style="edgeLabel;html=1;align=center;verticalAlign=middle;resizable=0;points=[];" vertex="1" connectable="0" parent="8ogGT7-_lDbHDxVYdEfR-29">
          <mxGeometry x="-0.0147" relative="1" as="geometry">
            <mxPoint y="-17" as="offset" />
          </mxGeometry>
        </mxCell>
        <mxCell id="8ogGT7-_lDbHDxVYdEfR-30" style="edgeStyle=orthogonalEdgeStyle;rounded=0;orthogonalLoop=1;jettySize=auto;html=1;entryX=0.8555;entryY=0.145;entryDx=0;entryDy=0;entryPerimeter=0;endArrow=none;endFill=0;fillColor=#76608a;strokeColor=#432D57;jumpStyle=arc;" edge="1" parent="1" source="8ogGT7-_lDbHDxVYdEfR-20" target="8ogGT7-_lDbHDxVYdEfR-12">
          <mxGeometry relative="1" as="geometry" />
        </mxCell>
        <mxCell id="8ogGT7-_lDbHDxVYdEfR-109" value="172.16.25.0/32" style="edgeLabel;html=1;align=center;verticalAlign=middle;resizable=0;points=[];" vertex="1" connectable="0" parent="8ogGT7-_lDbHDxVYdEfR-30">
          <mxGeometry x="0.0361" relative="1" as="geometry">
            <mxPoint as="offset" />
          </mxGeometry>
        </mxCell>
        <mxCell id="8ogGT7-_lDbHDxVYdEfR-31" style="edgeStyle=orthogonalEdgeStyle;rounded=0;orthogonalLoop=1;jettySize=auto;html=1;entryX=0.145;entryY=0.145;entryDx=0;entryDy=0;entryPerimeter=0;endArrow=none;endFill=0;fillColor=#e3c800;strokeColor=#B09500;" edge="1" parent="1" source="8ogGT7-_lDbHDxVYdEfR-21" target="8ogGT7-_lDbHDxVYdEfR-12">
          <mxGeometry relative="1" as="geometry" />
        </mxCell>
        <mxCell id="8ogGT7-_lDbHDxVYdEfR-107" value="172.16.15.0/32" style="edgeLabel;html=1;align=center;verticalAlign=middle;resizable=0;points=[];" vertex="1" connectable="0" parent="8ogGT7-_lDbHDxVYdEfR-31">
          <mxGeometry x="0.4602" y="-1" relative="1" as="geometry">
            <mxPoint as="offset" />
          </mxGeometry>
        </mxCell>
        <mxCell id="8ogGT7-_lDbHDxVYdEfR-32" style="edgeStyle=orthogonalEdgeStyle;rounded=0;orthogonalLoop=1;jettySize=auto;html=1;entryX=0.145;entryY=0.145;entryDx=0;entryDy=0;entryPerimeter=0;endArrow=none;endFill=0;fillColor=#e3c800;strokeColor=#B09500;jumpStyle=arc;" edge="1" parent="1" source="8ogGT7-_lDbHDxVYdEfR-21" target="8ogGT7-_lDbHDxVYdEfR-13">
          <mxGeometry relative="1" as="geometry" />
        </mxCell>
        <mxCell id="8ogGT7-_lDbHDxVYdEfR-108" value="172.16.16.0/32" style="edgeLabel;html=1;align=center;verticalAlign=middle;resizable=0;points=[];" vertex="1" connectable="0" parent="8ogGT7-_lDbHDxVYdEfR-32">
          <mxGeometry x="0.6629" y="1" relative="1" as="geometry">
            <mxPoint as="offset" />
          </mxGeometry>
        </mxCell>
        <mxCell id="8ogGT7-_lDbHDxVYdEfR-63" style="edgeStyle=orthogonalEdgeStyle;rounded=0;orthogonalLoop=1;jettySize=auto;html=1;" edge="1" parent="1" source="8ogGT7-_lDbHDxVYdEfR-35" target="8ogGT7-_lDbHDxVYdEfR-62">
          <mxGeometry relative="1" as="geometry" />
        </mxCell>
        <mxCell id="8ogGT7-_lDbHDxVYdEfR-69" value="164.4.1.0/24" style="edgeLabel;html=1;align=center;verticalAlign=middle;resizable=0;points=[];" vertex="1" connectable="0" parent="8ogGT7-_lDbHDxVYdEfR-63">
          <mxGeometry x="-0.3878" y="1" relative="1" as="geometry">
            <mxPoint as="offset" />
          </mxGeometry>
        </mxCell>
        <mxCell id="8ogGT7-_lDbHDxVYdEfR-35" value="" style="sketch=0;points=[[0.015,0.015,0],[0.985,0.015,0],[0.985,0.985,0],[0.015,0.985,0],[0.25,0,0],[0.5,0,0],[0.75,0,0],[1,0.25,0],[1,0.5,0],[1,0.75,0],[0.75,1,0],[0.5,1,0],[0.25,1,0],[0,0.75,0],[0,0.5,0],[0,0.25,0]];verticalLabelPosition=bottom;html=1;verticalAlign=top;aspect=fixed;align=center;pointerEvents=1;shape=mxgraph.cisco19.rect;prIcon=storage;fillColor=#FAFAFA;strokeColor=#005073;" vertex="1" parent="1">
          <mxGeometry x="-190" y="40" width="64" height="50" as="geometry" />
        </mxCell>
        <mxCell id="8ogGT7-_lDbHDxVYdEfR-37" value="" style="sketch=0;points=[[0.015,0.015,0],[0.985,0.015,0],[0.985,0.985,0],[0.015,0.985,0],[0.25,0,0],[0.5,0,0],[0.75,0,0],[1,0.25,0],[1,0.5,0],[1,0.75,0],[0.75,1,0],[0.5,1,0],[0.25,1,0],[0,0.75,0],[0,0.5,0],[0,0.25,0]];verticalLabelPosition=bottom;html=1;verticalAlign=top;aspect=fixed;align=center;pointerEvents=1;shape=mxgraph.cisco19.rect;prIcon=l2_switch;fillColor=#FAFAFA;strokeColor=#005073;" vertex="1" parent="1">
          <mxGeometry x="-140" y="300" width="50" height="50" as="geometry" />
        </mxCell>
        <mxCell id="8ogGT7-_lDbHDxVYdEfR-64" style="edgeStyle=orthogonalEdgeStyle;rounded=0;orthogonalLoop=1;jettySize=auto;html=1;" edge="1" parent="1" source="8ogGT7-_lDbHDxVYdEfR-43" target="8ogGT7-_lDbHDxVYdEfR-62">
          <mxGeometry relative="1" as="geometry" />
        </mxCell>
        <mxCell id="8ogGT7-_lDbHDxVYdEfR-43" value="" style="sketch=0;points=[[0.015,0.015,0],[0.985,0.015,0],[0.985,0.985,0],[0.015,0.985,0],[0.25,0,0],[0.5,0,0],[0.75,0,0],[1,0.25,0],[1,0.5,0],[1,0.75,0],[0.75,1,0],[0.5,1,0],[0.25,1,0],[0,0.75,0],[0,0.5,0],[0,0.25,0]];verticalLabelPosition=bottom;html=1;verticalAlign=top;aspect=fixed;align=center;pointerEvents=1;shape=mxgraph.cisco19.rect;prIcon=nam_virtual_service_blade;fillColor=#FAFAFA;strokeColor=#005073;" vertex="1" parent="1">
          <mxGeometry x="220" y="-50" width="64" height="50" as="geometry" />
        </mxCell>
        <mxCell id="8ogGT7-_lDbHDxVYdEfR-45" value="" style="points=[[0.13,0.02,0],[0.5,0,0],[0.87,0.02,0],[0.885,0.4,0],[0.985,0.985,0],[0.5,1,0],[0.015,0.985,0],[0.115,0.4,0]];verticalLabelPosition=bottom;sketch=0;html=1;verticalAlign=top;aspect=fixed;align=center;pointerEvents=1;shape=mxgraph.cisco19.laptop;fillColor=#005073;strokeColor=none;" vertex="1" parent="1">
          <mxGeometry x="-270" y="410" width="50" height="35" as="geometry" />
        </mxCell>
        <mxCell id="8ogGT7-_lDbHDxVYdEfR-61" value="" style="edgeStyle=orthogonalEdgeStyle;rounded=0;orthogonalLoop=1;jettySize=auto;html=1;entryX=0.94;entryY=0.714;entryDx=0;entryDy=0;entryPerimeter=0;" edge="1" parent="1" source="8ogGT7-_lDbHDxVYdEfR-37" target="8ogGT7-_lDbHDxVYdEfR-45">
          <mxGeometry relative="1" as="geometry">
            <mxPoint x="90" y="415" as="sourcePoint" />
            <mxPoint x="18.5" y="392" as="targetPoint" />
          </mxGeometry>
        </mxCell>
        <mxCell id="8ogGT7-_lDbHDxVYdEfR-70" value="164.4.3.0/24" style="edgeLabel;html=1;align=center;verticalAlign=middle;resizable=0;points=[];" vertex="1" connectable="0" parent="8ogGT7-_lDbHDxVYdEfR-61">
          <mxGeometry x="0.2118" y="2" relative="1" as="geometry">
            <mxPoint as="offset" />
          </mxGeometry>
        </mxCell>
        <mxCell id="8ogGT7-_lDbHDxVYdEfR-62" value="" style="sketch=0;points=[[0.5,0,0],[1,0.5,0],[0.5,1,0],[0,0.5,0],[0.145,0.145,0],[0.8555,0.145,0],[0.855,0.8555,0],[0.145,0.855,0]];verticalLabelPosition=bottom;html=1;verticalAlign=top;aspect=fixed;align=center;pointerEvents=1;shape=mxgraph.cisco19.rect;prIcon=router;fillColor=#FAFAFA;strokeColor=#005073;" vertex="1" parent="1">
          <mxGeometry x="50" y="20" width="50" height="50" as="geometry" />
        </mxCell>
        <mxCell id="8ogGT7-_lDbHDxVYdEfR-71" value="&lt;h1&gt;Conventions:&lt;/h1&gt;&lt;ul&gt;&lt;li&gt;x,y = Router number&lt;/li&gt;&lt;li&gt;Loopbacks: 192.168.10.x/32&lt;/li&gt;&lt;li&gt;xco:172.16.xy.0/30(x&amp;lt;y)&lt;/li&gt;&lt;li&gt;Internal routers with lower xco @IP&lt;/li&gt;&lt;/ul&gt;" style="text;html=1;strokeColor=none;fillColor=none;spacing=5;spacingTop=-20;whiteSpace=wrap;overflow=hidden;rounded=0;" vertex="1" parent="1">
          <mxGeometry x="40" y="500" width="200" height="170" as="geometry" />
        </mxCell>
        <mxCell id="8ogGT7-_lDbHDxVYdEfR-72" value="SDIS-R1" style="sketch=0;points=[[0.5,0,0],[1,0.5,0],[0.5,1,0],[0,0.5,0],[0.145,0.145,0],[0.8555,0.145,0],[0.855,0.8555,0],[0.145,0.855,0]];verticalLabelPosition=bottom;html=1;verticalAlign=top;aspect=fixed;align=center;pointerEvents=1;shape=mxgraph.cisco19.rect;prIcon=router;fillColor=#FAFAFA;strokeColor=#005073;" vertex="1" parent="1">
          <mxGeometry x="1150" y="-20" width="50" height="50" as="geometry" />
        </mxCell>
        <mxCell id="8ogGT7-_lDbHDxVYdEfR-73" value="SDIS-R2" style="sketch=0;points=[[0.5,0,0],[1,0.5,0],[0.5,1,0],[0,0.5,0],[0.145,0.145,0],[0.8555,0.145,0],[0.855,0.8555,0],[0.145,0.855,0]];verticalLabelPosition=bottom;html=1;verticalAlign=top;aspect=fixed;align=center;pointerEvents=1;shape=mxgraph.cisco19.rect;prIcon=router;fillColor=#FAFAFA;strokeColor=#005073;" vertex="1" parent="1">
          <mxGeometry x="1150" y="550" width="50" height="50" as="geometry" />
        </mxCell>
        <mxCell id="8ogGT7-_lDbHDxVYdEfR-74" value="" style="endArrow=none;html=1;rounded=0;entryX=0;entryY=0.5;entryDx=0;entryDy=0;entryPerimeter=0;exitX=1;exitY=0.5;exitDx=0;exitDy=0;exitPerimeter=0;shape=link;" edge="1" parent="1" source="8ogGT7-_lDbHDxVYdEfR-20" target="8ogGT7-_lDbHDxVYdEfR-72">
          <mxGeometry width="50" height="50" relative="1" as="geometry">
            <mxPoint x="810" y="290" as="sourcePoint" />
            <mxPoint x="860" y="240" as="targetPoint" />
          </mxGeometry>
        </mxCell>
        <mxCell id="8ogGT7-_lDbHDxVYdEfR-75" value="Load Balanced" style="edgeLabel;html=1;align=center;verticalAlign=middle;resizable=0;points=[];" vertex="1" connectable="0" parent="8ogGT7-_lDbHDxVYdEfR-74">
          <mxGeometry x="0.0762" y="1" relative="1" as="geometry">
            <mxPoint as="offset" />
          </mxGeometry>
        </mxCell>
        <mxCell id="8ogGT7-_lDbHDxVYdEfR-114" value="172.16.21.0/32" style="edgeLabel;html=1;align=center;verticalAlign=middle;resizable=0;points=[];" vertex="1" connectable="0" parent="8ogGT7-_lDbHDxVYdEfR-74">
          <mxGeometry x="-0.5529" y="-5" relative="1" as="geometry">
            <mxPoint as="offset" />
          </mxGeometry>
        </mxCell>
        <mxCell id="8ogGT7-_lDbHDxVYdEfR-76" style="rounded=0;orthogonalLoop=1;jettySize=auto;html=1;exitX=1;exitY=0.5;exitDx=0;exitDy=0;exitPerimeter=0;entryX=0;entryY=0.5;entryDx=0;entryDy=0;entryPerimeter=0;shape=link;" edge="1" parent="1" source="8ogGT7-_lDbHDxVYdEfR-19" target="8ogGT7-_lDbHDxVYdEfR-73">
          <mxGeometry relative="1" as="geometry" />
        </mxCell>
        <mxCell id="8ogGT7-_lDbHDxVYdEfR-77" value="Active/Pasive" style="edgeLabel;html=1;align=center;verticalAlign=middle;resizable=0;points=[];" vertex="1" connectable="0" parent="8ogGT7-_lDbHDxVYdEfR-76">
          <mxGeometry x="0.2476" y="-5" relative="1" as="geometry">
            <mxPoint as="offset" />
          </mxGeometry>
        </mxCell>
        <mxCell id="8ogGT7-_lDbHDxVYdEfR-115" value="172.16.24.0/32" style="edgeLabel;html=1;align=center;verticalAlign=middle;resizable=0;points=[];" vertex="1" connectable="0" parent="8ogGT7-_lDbHDxVYdEfR-76">
          <mxGeometry x="-0.4325" y="-2" relative="1" as="geometry">
            <mxPoint as="offset" />
          </mxGeometry>
        </mxCell>
        <mxCell id="8ogGT7-_lDbHDxVYdEfR-78" value="" style="endArrow=classic;startArrow=classic;html=1;rounded=0;entryX=0.5;entryY=1;entryDx=0;entryDy=0;entryPerimeter=0;exitX=0.5;exitY=0;exitDx=0;exitDy=0;exitPerimeter=0;dashed=1;dashPattern=12 12;" edge="1" parent="1" source="8ogGT7-_lDbHDxVYdEfR-73" target="8ogGT7-_lDbHDxVYdEfR-72">
          <mxGeometry width="50" height="50" relative="1" as="geometry">
            <mxPoint x="810" y="290" as="sourcePoint" />
            <mxPoint x="1180" y="40" as="targetPoint" />
          </mxGeometry>
        </mxCell>
        <mxCell id="8ogGT7-_lDbHDxVYdEfR-79" value="HSRP" style="edgeLabel;html=1;align=center;verticalAlign=middle;resizable=0;points=[];" vertex="1" connectable="0" parent="8ogGT7-_lDbHDxVYdEfR-78">
          <mxGeometry x="0.2808" y="-2" relative="1" as="geometry">
            <mxPoint as="offset" />
          </mxGeometry>
        </mxCell>
        <mxCell id="8ogGT7-_lDbHDxVYdEfR-85" style="edgeStyle=orthogonalEdgeStyle;rounded=0;orthogonalLoop=1;jettySize=auto;html=1;" edge="1" parent="1" source="8ogGT7-_lDbHDxVYdEfR-81" target="8ogGT7-_lDbHDxVYdEfR-84">
          <mxGeometry relative="1" as="geometry" />
        </mxCell>
        <mxCell id="8ogGT7-_lDbHDxVYdEfR-81" value="" style="sketch=0;points=[[0.015,0.015,0],[0.985,0.015,0],[0.985,0.985,0],[0.015,0.985,0],[0.25,0,0],[0.5,0,0],[0.75,0,0],[1,0.25,0],[1,0.5,0],[1,0.75,0],[0.75,1,0],[0.5,1,0],[0.25,1,0],[0,0.75,0],[0,0.5,0],[0,0.25,0]];verticalLabelPosition=bottom;html=1;verticalAlign=top;aspect=fixed;align=center;pointerEvents=1;shape=mxgraph.cisco19.rect;prIcon=l2_switch;fillColor=#FAFAFA;strokeColor=#005073;" vertex="1" parent="1">
          <mxGeometry x="1300" y="190" width="50" height="50" as="geometry" />
        </mxCell>
        <mxCell id="8ogGT7-_lDbHDxVYdEfR-82" style="edgeStyle=orthogonalEdgeStyle;rounded=0;orthogonalLoop=1;jettySize=auto;html=1;exitX=0.855;exitY=0.8555;exitDx=0;exitDy=0;exitPerimeter=0;entryX=0.015;entryY=0.015;entryDx=0;entryDy=0;entryPerimeter=0;endArrow=none;endFill=0;" edge="1" parent="1" source="8ogGT7-_lDbHDxVYdEfR-72" target="8ogGT7-_lDbHDxVYdEfR-81">
          <mxGeometry relative="1" as="geometry" />
        </mxCell>
        <mxCell id="8ogGT7-_lDbHDxVYdEfR-83" style="edgeStyle=orthogonalEdgeStyle;rounded=0;orthogonalLoop=1;jettySize=auto;html=1;exitX=1;exitY=0.5;exitDx=0;exitDy=0;exitPerimeter=0;entryX=0.015;entryY=0.985;entryDx=0;entryDy=0;entryPerimeter=0;endArrow=none;endFill=0;" edge="1" parent="1" source="8ogGT7-_lDbHDxVYdEfR-73" target="8ogGT7-_lDbHDxVYdEfR-81">
          <mxGeometry relative="1" as="geometry" />
        </mxCell>
        <mxCell id="8ogGT7-_lDbHDxVYdEfR-95" value="164.4.2.0/24" style="edgeLabel;html=1;align=center;verticalAlign=middle;resizable=0;points=[];" vertex="1" connectable="0" parent="8ogGT7-_lDbHDxVYdEfR-83">
          <mxGeometry x="0.4697" y="1" relative="1" as="geometry">
            <mxPoint as="offset" />
          </mxGeometry>
        </mxCell>
        <mxCell id="8ogGT7-_lDbHDxVYdEfR-84" value="" style="points=[[0.13,0.02,0],[0.5,0,0],[0.87,0.02,0],[0.885,0.4,0],[0.985,0.985,0],[0.5,1,0],[0.015,0.985,0],[0.115,0.4,0]];verticalLabelPosition=bottom;sketch=0;html=1;verticalAlign=top;aspect=fixed;align=center;pointerEvents=1;shape=mxgraph.cisco19.laptop;fillColor=#005073;strokeColor=none;" vertex="1" parent="1">
          <mxGeometry x="1440" y="197.5" width="50" height="35" as="geometry" />
        </mxCell>
        <mxCell id="8ogGT7-_lDbHDxVYdEfR-86" style="edgeStyle=orthogonalEdgeStyle;rounded=0;orthogonalLoop=1;jettySize=auto;html=1;entryX=0.5;entryY=0;entryDx=0;entryDy=0;entryPerimeter=0;shape=link;" edge="1" parent="1" source="8ogGT7-_lDbHDxVYdEfR-62" target="8ogGT7-_lDbHDxVYdEfR-21">
          <mxGeometry relative="1" as="geometry" />
        </mxCell>
        <mxCell id="8ogGT7-_lDbHDxVYdEfR-88" value="Load Balanced" style="edgeLabel;html=1;align=center;verticalAlign=middle;resizable=0;points=[];" vertex="1" connectable="0" parent="8ogGT7-_lDbHDxVYdEfR-86">
          <mxGeometry x="0.1125" y="-1" relative="1" as="geometry">
            <mxPoint as="offset" />
          </mxGeometry>
        </mxCell>
        <mxCell id="8ogGT7-_lDbHDxVYdEfR-87" style="edgeStyle=orthogonalEdgeStyle;rounded=0;orthogonalLoop=1;jettySize=auto;html=1;entryX=0.145;entryY=0.145;entryDx=0;entryDy=0;entryPerimeter=0;shape=link;" edge="1" parent="1" source="8ogGT7-_lDbHDxVYdEfR-62" target="8ogGT7-_lDbHDxVYdEfR-22">
          <mxGeometry relative="1" as="geometry">
            <Array as="points">
              <mxPoint x="75" y="280" />
              <mxPoint x="207" y="280" />
            </Array>
          </mxGeometry>
        </mxCell>
        <mxCell id="8ogGT7-_lDbHDxVYdEfR-89" value="Load Balanced" style="edgeLabel;html=1;align=center;verticalAlign=middle;resizable=0;points=[];" vertex="1" connectable="0" parent="8ogGT7-_lDbHDxVYdEfR-87">
          <mxGeometry x="-0.1324" y="4" relative="1" as="geometry">
            <mxPoint as="offset" />
          </mxGeometry>
        </mxCell>
        <mxCell id="8ogGT7-_lDbHDxVYdEfR-90" value="" style="sketch=0;points=[[0.015,0.015,0],[0.985,0.015,0],[0.985,0.985,0],[0.015,0.985,0],[0.25,0,0],[0.5,0,0],[0.75,0,0],[1,0.25,0],[1,0.5,0],[1,0.75,0],[0.75,1,0],[0.5,1,0],[0.25,1,0],[0,0.75,0],[0,0.5,0],[0,0.25,0]];verticalLabelPosition=bottom;html=1;verticalAlign=top;aspect=fixed;align=center;pointerEvents=1;shape=mxgraph.cisco19.rect;prIcon=shield;fillColor=#FAFAFA;strokeColor=#005073;" vertex="1" parent="1">
          <mxGeometry x="83" y="50" width="64" height="50" as="geometry" />
        </mxCell>
        <mxCell id="8ogGT7-_lDbHDxVYdEfR-92" value="SDIS-3" style="sketch=0;points=[[0.5,0,0],[1,0.5,0],[0.5,1,0],[0,0.5,0],[0.145,0.145,0],[0.8555,0.145,0],[0.855,0.8555,0],[0.145,0.855,0]];verticalLabelPosition=bottom;html=1;verticalAlign=top;aspect=fixed;align=center;pointerEvents=1;shape=mxgraph.cisco19.rect;prIcon=router;fillColor=#FAFAFA;strokeColor=#005073;" vertex="1" parent="1">
          <mxGeometry x="-70" y="445" width="50" height="50" as="geometry" />
        </mxCell>
        <mxCell id="8ogGT7-_lDbHDxVYdEfR-93" style="edgeStyle=orthogonalEdgeStyle;rounded=0;orthogonalLoop=1;jettySize=auto;html=1;exitX=0;exitY=0.5;exitDx=0;exitDy=0;exitPerimeter=0;entryX=1;entryY=0.5;entryDx=0;entryDy=0;entryPerimeter=0;" edge="1" parent="1" source="8ogGT7-_lDbHDxVYdEfR-22" target="8ogGT7-_lDbHDxVYdEfR-92">
          <mxGeometry relative="1" as="geometry" />
        </mxCell>
        <mxCell id="8ogGT7-_lDbHDxVYdEfR-94" style="edgeStyle=orthogonalEdgeStyle;rounded=0;orthogonalLoop=1;jettySize=auto;html=1;entryX=1;entryY=0.25;entryDx=0;entryDy=0;entryPerimeter=0;" edge="1" parent="1" source="8ogGT7-_lDbHDxVYdEfR-92" target="8ogGT7-_lDbHDxVYdEfR-37">
          <mxGeometry relative="1" as="geometry" />
        </mxCell>
        <mxCell id="8ogGT7-_lDbHDxVYdEfR-102" style="edgeStyle=orthogonalEdgeStyle;rounded=0;orthogonalLoop=1;jettySize=auto;html=1;" edge="1" parent="1" source="8ogGT7-_lDbHDxVYdEfR-96" target="8ogGT7-_lDbHDxVYdEfR-37">
          <mxGeometry relative="1" as="geometry" />
        </mxCell>
        <mxCell id="8ogGT7-_lDbHDxVYdEfR-96" value="SDIS-4" style="sketch=0;points=[[0.5,0,0],[1,0.5,0],[0.5,1,0],[0,0.5,0],[0.145,0.145,0],[0.8555,0.145,0],[0.855,0.8555,0],[0.145,0.855,0]];verticalLabelPosition=bottom;html=1;verticalAlign=top;aspect=fixed;align=center;pointerEvents=1;shape=mxgraph.cisco19.rect;prIcon=router;fillColor=#FAFAFA;strokeColor=#005073;" vertex="1" parent="1">
          <mxGeometry x="-70" y="182.5" width="50" height="50" as="geometry" />
        </mxCell>
        <mxCell id="8ogGT7-_lDbHDxVYdEfR-97" style="edgeStyle=orthogonalEdgeStyle;rounded=0;orthogonalLoop=1;jettySize=auto;html=1;entryX=0.5;entryY=0;entryDx=0;entryDy=0;entryPerimeter=0;" edge="1" parent="1" source="8ogGT7-_lDbHDxVYdEfR-21" target="8ogGT7-_lDbHDxVYdEfR-96">
          <mxGeometry relative="1" as="geometry" />
        </mxCell>
        <mxCell id="8ogGT7-_lDbHDxVYdEfR-103" style="edgeStyle=orthogonalEdgeStyle;rounded=0;orthogonalLoop=1;jettySize=auto;html=1;entryX=0.5;entryY=0;entryDx=0;entryDy=0;entryPerimeter=0;startArrow=classic;startFill=1;dashed=1;dashPattern=8 8;" edge="1" parent="1" source="8ogGT7-_lDbHDxVYdEfR-96" target="8ogGT7-_lDbHDxVYdEfR-92">
          <mxGeometry relative="1" as="geometry" />
        </mxCell>
      </root>
    </mxGraphModel>
  </diagram>
</mxfile>
